0
SECTION
2
HEADER
9
$INSUNITS
70
4
9
$ACADVER
1
AC1014
9
$HANDSEED
5
FFFF
0
ENDSEC
0
SECTION
2
TABLES
0
TABLE
2
VPORT
5
8
100
AcDbSymbolTable
0
ENDTAB
0
TABLE
2
LTYPE
5
5
100
AcDbSymbolTable
0
LTYPE
5
14
100
AcDbSymbolTableRecord
100
AcDbLinetypeTableRecord
2
BYBLOCK
70
0
0
LTYPE
5
15
100
AcDbSymbolTableRecord
100
AcDbLinetypeTableRecord
2
BYLAYER
70
0
0
ENDTAB
0
TABLE
2
LAYER
5
2
100
AcDbSymbolTable
70
2
0
LAYER
5
50
100
AcDbSymbolTableRecord
100
AcDbLayerTableRecord
2
0
70
0
6
CONTINUOUS
0
ENDTAB
0
TABLE
2
STYLE
5
3
100
AcDbSymbolTable
70
1
0
STYLE
5
11
100
AcDbSymbolTableRecord
100
AcDbTextStyleTableRecord
2
STANDARD
70
0
0
ENDTAB
0
TABLE
2
VIEW
5
6
100
AcDbSymbolTable
70
0
0
ENDTAB
0
TABLE
2
UCS
5
7
100
AcDbSymbolTable
70
0
0
ENDTAB
0
TABLE
2
APPID
5
9
100
AcDbSymbolTable
70
2
0
APPID
5
12
100
AcDbSymbolTableRecord
100
AcDbRegAppTableRecord
2
ACAD
70
0
0
ENDTAB
0
TABLE
2
DIMSTYLE
5
A
100
AcDbSymbolTable
70
1
0
ENDTAB
0
TABLE
2
BLOCK_RECORD
5
1
100
AcDbSymbolTable
70
1
0
BLOCK_RECORD
5
1F
100
AcDbSymbolTableRecord
100
AcDbBlockTableRecord
2
*MODEL_SPACE
0
BLOCK_RECORD
5
1B
100
AcDbSymbolTableRecord
100
AcDbBlockTableRecord
2
*PAPER_SPACE
0
ENDTAB
0
ENDSEC
0
SECTION
2
BLOCKS
0
BLOCK
5
20
100
AcDbEntity
100
AcDbBlockBegin
2
*MODEL_SPACE
0
ENDBLK
5
21
100
AcDbEntity
100
AcDbBlockEnd
0
BLOCK
5
1C
100
AcDbEntity
100
AcDbBlockBegin
2
*PAPER_SPACE
0
ENDBLK
5
1D
100
AcDbEntity
100
AcDbBlockEnd
0
ENDSEC
0
SECTION
2
ENTITIES
0
CIRCLE
5
100
100
AcDbEntity
8
0
100
AcDbCircle
10
-180.99999999999994
20
21.000000000000014
30
0
40
1.6000000000000014
210
0
220
-0
230
1
0
CIRCLE
5
101
100
AcDbEntity
8
0
100
AcDbCircle
10
-118.99999999999997
20
-121.00000000000001
30
0
40
1.6000000000000014
210
0
220
-0
230
1
0
CIRCLE
5
102
100
AcDbEntity
8
0
100
AcDbCircle
10
-118.99999999999997
20
21.000000000000007
30
0
40
1.6000000000000014
210
0
220
-0
230
1
0
CIRCLE
5
103
100
AcDbEntity
8
0
100
AcDbCircle
10
-180.99999999999994
20
-121.00000000000001
30
0
40
1.6000000000000014
210
0
220
-0
230
1
0
CIRCLE
5
104
100
AcDbEntity
8
0
100
AcDbCircle
10
-353.999995896168
20
-52.375168766925952
30
0
40
1.5999999999999659
210
0
220
0
230
1
0
CIRCLE
5
105
100
AcDbEntity
8
0
100
AcDbCircle
10
-301.00000350848865
20
-167.62483123307425
30
0
40
1.6000000000000014
210
0
220
0
230
1
0
CIRCLE
5
106
100
AcDbEntity
8
0
100
AcDbCircle
10
-353.99999649151079
20
-167.62483123307436
30
0
40
1.5999999999999659
210
0
220
0
230
1
0
CIRCLE
5
107
100
AcDbEntity
8
0
100
AcDbCircle
10
-301.000004103832
20
-52.375168766925825
30
0
40
1.6000000000000014
210
0
220
0
230
1
0
CIRCLE
5
108
100
AcDbEntity
8
0
100
AcDbCircle
10
-280
20
-169.99999999999997
30
0
40
2.7499999999999858
210
0
220
0
230
1
0
CIRCLE
5
109
100
AcDbEntity
8
0
100
AcDbCircle
10
-65.999999999999957
20
-69.999999999999986
30
0
40
1.6000000000000014
210
0
220
-0
230
1
0
CIRCLE
5
110
100
AcDbEntity
8
0
100
AcDbCircle
10
-20.999999999999972
20
-70.000000000000014
30
0
40
1.6000000000000014
210
0
220
-0
230
1
0
CIRCLE
5
111
100
AcDbEntity
8
0
100
AcDbCircle
10
0
20
10.000000000000053
30
0
40
2.7500000000000013
210
0
220
-0
230
1
0
CIRCLE
5
112
100
AcDbEntity
8
0
100
AcDbCircle
10
-280
20
-109.99999999999997
30
0
40
2.7499999999999858
210
0
220
-0
230
1
0
CIRCLE
5
113
100
AcDbEntity
8
0
100
AcDbCircle
10
-280
20
-49.999999999999964
30
0
40
2.7499999999999858
210
0
220
-0
230
1
0
CIRCLE
5
114
100
AcDbEntity
8
0
100
AcDbCircle
10
-280
20
10.000000000000053
30
0
40
2.7499999999999858
210
0
220
-0
230
1
0
CIRCLE
5
115
100
AcDbEntity
8
0
100
AcDbCircle
10
-17.999999999999968
20
-22.499999999999993
30
0
40
1.6000000000000036
210
0
220
-0
230
1
0
CIRCLE
5
116
100
AcDbEntity
8
0
100
AcDbCircle
10
0
20
-109.99999999999997
30
0
40
2.7500000000000036
210
0
220
-0
230
1
0
CIRCLE
5
117
100
AcDbEntity
8
0
100
AcDbCircle
10
-65.999999999999972
20
-22.499999999999986
30
0
40
1.6000000000000014
210
0
220
-0
230
1
0
CIRCLE
5
118
100
AcDbEntity
8
0
100
AcDbCircle
10
0
20
-49.999999999999964
30
0
40
2.7500000000000036
210
0
220
-0
230
1
0
LINE
5
119
100
AcDbEntity
8
0
100
AcDbLine
10
-270.00000402331352
20
-126.00000000000001
30
0
11
10
21
-126.00000000000001
31
0
0
LINE
5
120
100
AcDbEntity
8
0
100
AcDbLine
10
10
20
-126.00000000000001
30
0
11
10
21
26.000000000000014
31
0
0
LINE
5
121
100
AcDbEntity
8
0
100
AcDbLine
10
10
20
26.000000000000014
30
0
11
-290
21
26.000000000000021
31
0
0
LINE
5
122
100
AcDbEntity
8
0
100
AcDbLine
10
-290
20
26.000000000000021
30
0
11
-290
21
-25
31
0
0
SPLINE
5
123
100
AcDbEntity
8
0
100
AcDbSpline
70
4
71
5
72
16
73
10
74
0
42
0.000000001
43
0.0000000001
44
0.0000000001
40
0
40
0
40
0
40
0
40
0
40
0
40
0.20000000000000001
40
0.40000000000000002
40
0.60000000000000009
40
0.80000000000000004
40
1
40
1
40
1
40
1
40
1
40
1
41
1
41
1
41
1
41
1
41
1
41
1
41
1
41
1
41
1
41
1
10
-370
20
-110.00000000000043
30
0
10
-370
20
-101.59963941214407
30
0
10
-369.68733981570841
20
-86.222684926314415
30
0
10
-368.280621540531
20
-67.42474476586051
30
0
10
-364.27653655004679
20
-49.747766314187572
30
0
10
-353.28874222943364
20
-36.054393471714754
30
0
10
-336.23653167076986
20
-29.528921803424492
30
0
10
-316.33595849209394
20
-26.536650229591739
30
0
10
-299.39202260746947
20
-25.373521539623155
30
0
10
-290
20
-25
30
0
0
SPLINE
5
124
100
AcDbEntity
8
0
100
AcDbSpline
70
4
71
5
72
16
73
10
74
0
42
0.000000001
43
0.0000000001
44
0.0000000001
40
0
40
0
40
0
40
0
40
0
40
0
40
0.20000000000000001
40
0.40000000000000002
40
0.60000000000000009
40
0.80000000000000004
40
1
40
1
40
1
40
1
40
1
40
1
41
1
41
1
41
1
41
1
41
1
41
1
41
1
41
1
41
1
41
1
10
-369.99999999999994
20
-110.00000000000043
30
0
10
-369.99999999999994
20
-118.40036058785678
30
0
10
-369.6873398157083
20
-133.77731507368645
30
0
10
-368.28062154053077
20
-152.57525523414034
30
0
10
-364.27653655004644
20
-170.25223368581325
30
0
10
-353.28874222943335
20
-183.94560652828602
30
0
10
-336.23653167076952
20
-190.47107819657626
30
0
10
-316.33595849209365
20
-193.46334977040894
30
0
10
-299.39202260746913
20
-194.62647846037743
30
0
10
-289.99999999999966
20
-195.00000000000057
30
0
0
LINE
5
125
100
AcDbEntity
8
0
100
AcDbLine
10
-289.99999999999972
20
-195.00000000000057
30
0
11
-270.00000402331352
21
-195.00000000000057
31
0
0
LINE
5
126
100
AcDbEntity
8
0
100
AcDbLine
10
-270.00000402331352
20
-195.00000000000057
30
0
11
-270.00000402331352
21
-126.00000000000001
31
0
0
ENDSEC
0
SECTION
2
OBJECTS
0
DICTIONARY
5
C
100
AcDbDictionary
3
ACAD_GROUP
350
D
3
ACAD_MLINESTYLE
350
17
0
DICTIONARY
5
D
100
AcDbDictionary
0
DICTIONARY
5
1A
330
C
100
AcDbDictionary
0
DICTIONARY
5
17
100
AcDbDictionary
0
ENDSEC
0
EOF
